# xmcd
#
# Track frame offsets:
# 182
# 10220
# 20315
# 30100
# 39807
# 50220
# 66367
# 81612
# 90777
# 102902
# 116460
# 125905
# 134987
# 146832
# 159677
# 171680
# 183132
# 194280
# 204990
# 216555
# 230212
# 244375
# 254552
# 264970
#
# Disc length: 3674 seconds
#
#
# Revision: 5
# Processed by: cddbd v1.5.2PL0 Copyright (c) Steve Scherf et al.
# Submitted via: FreeRIP 2.951 
#
DISCID=6b0e5818
DTITLE=Tiao Carreiro - Dose Dupla V2
DYEAR=1900
DGENRE=Sertaneja
TTITLE0=Selecao De Pagode N1
TTITLE1=Ferreirinha Na Viola
TTITLE2=Menino Da Porteira
TTITLE3=Selecao De Pagode N2
TTITLE4=Viola Chic Chic
TTITLE5=Selacao De Pagode N3
TTITLE6=Viola Que Vale Ouro
TTITLE7=Selecao De Pagode N4
TTITLE8=Canoeiro
TTITLE9=Rio De Lagrimas
TTITLE10=Cabelo Loiro
TTITLE11=Selecao De Pagode N5
TTITLE12=Maladrinha
TTITLE13=Cavalo Zaino
TTITLE14=Selecao De Pagode N6
TTITLE15=Viola Barulhenta
TTITLE16=Casinha Branca Da Serra
TTITLE17=Malandro Da Barra Funda
TTITLE18=Cidade Morena
TTITLE19=Volta Toma Um Pingao
TTITLE20=Selecao De Pagode N7
TTITLE21=Faz Um Ano
TTITLE22=O Mineiro Do Pagode
TTITLE23=Selecao De Polcas
EXTD=
EXTT0=
EXTT1=
EXTT2=
EXTT3=
EXTT4=
EXTT5=
EXTT6=
EXTT7=
EXTT8=
EXTT9=
EXTT10=
EXTT11=
EXTT12=
EXTT13=
EXTT14=
EXTT15=
EXTT16=
EXTT17=
EXTT18=
EXTT19=
EXTT20=
EXTT21=
EXTT22=
EXTT23=
PLAYORDER=
